<?xml version="1.0" standalone="no"?>
<!DOCTYPE svg PUBLIC "-//W3C//DTD SVG 20010904//EN"
 "http://www.w3.org/TR/2001/REC-SVG-20010904/DTD/svg10.dtd">
<svg version="1.0" xmlns="http://www.w3.org/2000/svg"
 width="300.000000pt" height="298.000000pt" viewBox="0 0 300.000000 298.000000"
 preserveAspectRatio="xMidYMid meet">

<g transform="translate(0.000000,298.000000) scale(0.100000,-0.100000)"
fill="#000000" stroke="none">
<path d="M1350 2386 c-43 -79 -54 -86 -127 -86 -24 0 -66 -9 -94 -20 -52 -19
-52 -19 -77 0 -32 25 -57 27 -47 3 20 -48 17 -60 -18 -82 -96 -59 -150 -156
-151 -272 -1 -56 -5 -82 -17 -95 -37 -42 -59 -103 -59 -163 0 -58 2 -63 43
-104 41 -43 131 -87 177 -87 41 0 17 -18 -47 -36 -88 -24 -146 -23 -210 6 -44
19 -53 27 -53 49 -1 14 -7 37 -14 51 -13 23 -12 25 15 37 33 14 36 29 14 60
-8 12 -12 28 -9 36 7 20 -11 54 -37 67 -15 8 -27 8 -48 -3 -15 -8 -42 -12 -59
-9 -24 3 -34 -1 -46 -21 -9 -13 -14 -32 -10 -41 3 -9 1 -23 -6 -31 -10 -12 -9
-20 4 -40 9 -14 22 -25 29 -25 6 0 20 -14 29 -30 19 -34 42 -38 70 -13 25 22
39 7 45 -49 l5 -44 -34 4 c-57 6 -83 -37 -59 -101 14 -35 132 -108 253 -156
25 -9 26 -13 17 -43 -5 -18 -9 -44 -9 -57 0 -20 4 -22 23 -16 68 21 64 26 69
-77 3 -52 11 -105 19 -118 9 -17 14 -61 14 -140 0 -113 0 -115 -27 -138 -34
-29 -36 -50 -5 -56 49 -10 188 -20 282 -21 l100 0 5 40 5 40 58 3 c69 4 76
-13 22 -54 -19 -14 -35 -32 -35 -39 0 -16 158 -35 294 -35 l105 0 6 33 7 34
51 -9 c152 -25 469 -26 712 -4 47 5 187 59 250 97 63 38 110 83 101 97 -3 5
-39 12 -80 16 -65 6 -176 31 -176 40 0 1 9 29 20 61 11 32 17 62 13 66 -5 4
-37 -6 -72 -22 -35 -16 -72 -29 -81 -29 -20 0 -95 77 -112 115 -11 24 -8 30
40 78 29 29 49 56 46 60 -4 4 -42 7 -85 7 l-78 0 -35 71 c-48 97 -47 114 14
174 28 27 50 55 50 62 0 10 -22 13 -84 13 l-83 0 -36 78 -36 77 51 52 c52 52
55 73 13 73 -14 0 -45 5 -70 12 -42 11 -48 17 -72 68 -14 30 -29 62 -34 71 -6
11 7 31 46 75 64 69 70 89 23 80 -17 -3 -61 -9 -97 -12 l-67 -6 -38 48 c-22
27 -54 65 -72 84 l-33 35 14 60 c8 33 14 63 15 68 0 15 -27 6 -83 -28 -32 -19
-64 -35 -72 -35 -7 0 -37 11 -67 25 -29 14 -63 25 -75 25 -21 0 -37 37 -69
158 -7 26 -25 9 -64 -62z m83 -103 c-6 -14 -49 -26 -73 -18 -32 10 -31 35 2
97 l32 61 22 -64 c11 -35 19 -69 17 -76z m-106 -23 c30 -24 61 -25 108 -5 30
12 42 12 78 1 72 -23 91 -36 112 -79 15 -32 29 -45 59 -56 34 -13 40 -13 50 1
11 15 14 15 32 0 11 -10 37 -39 58 -65 34 -43 37 -51 27 -73 -17 -39 -13 -70
13 -101 19 -22 32 -28 64 -27 38 1 40 0 69 -60 l30 -61 -19 -35 c-30 -56 -10
-106 44 -112 28 -3 34 -10 57 -68 23 -56 25 -68 14 -90 -7 -14 -13 -35 -13
-47 0 -31 47 -83 76 -83 18 0 25 -7 30 -27 4 -16 21 -55 37 -88 25 -48 30 -70
28 -110 -3 -54 11 -76 56 -89 12 -4 32 -24 44 -44 13 -20 40 -53 61 -72 22
-20 43 -51 49 -72 10 -39 24 -50 71 -62 17 -4 32 -1 40 8 9 10 21 11 43 4 16
-5 66 -15 109 -23 43 -8 81 -17 84 -19 8 -9 -113 -80 -183 -107 -38 -15 -95
-30 -125 -34 -30 -4 -77 -11 -104 -16 -108 -20 -626 -2 -651 23 -2 2 2 31 10
63 30 126 46 207 42 212 -9 8 -37 -78 -57 -172 -11 -53 -24 -114 -30 -136
l-11 -39 -104 0 c-112 0 -148 8 -159 37 -10 23 -48 157 -71 248 -17 69 -41
128 -30 75 7 -34 36 -192 38 -210 2 -12 -12 -15 -73 -15 -98 0 -175 26 -253
84 -51 39 -68 59 -101 125 -40 78 -40 78 -41 200 0 114 2 128 38 240 22 65 47
132 57 148 l17 29 145 5 c87 3 163 10 189 19 l44 14 -50 -4 c-120 -12 -334
-10 -346 3 -7 6 -32 12 -55 12 -50 0 -138 43 -166 81 -44 59 -29 165 31 223
27 26 28 30 23 97 -3 51 0 81 13 114 21 56 82 134 123 158 l31 18 10 -38 c5
-21 11 -47 13 -58 3 -17 11 -20 48 -19 60 0 100 27 100 65 0 24 -8 34 -45 57
-25 15 -45 30 -45 34 0 3 15 11 33 17 87 27 151 27 184 1z m409 -49 c-6 -33
-14 -63 -18 -67 -12 -11 -67 17 -73 38 -4 10 -1 26 6 34 12 14 76 53 90 54 3
0 1 -27 -5 -59z m-620 -3 c35 -24 64 -48 64 -54 1 -32 -94 -71 -105 -43 -11
33 -33 139 -28 139 4 0 35 -19 69 -42z m922 -217 c-1 -5 -25 -32 -51 -60 -55
-58 -87 -66 -113 -26 -12 18 -14 31 -7 52 9 26 14 28 79 34 38 3 75 6 82 7 8
1 12 -2 10 -7z m75 -289 l48 -17 -39 -38 c-31 -30 -46 -38 -68 -35 -24 2 -30
8 -32 32 -4 32 15 76 32 75 6 0 33 -8 59 -17z m-1513 -57 c0 -8 -7 -15 -15
-15 -8 0 -15 7 -15 15 0 8 7 15 15 15 8 0 15 -7 15 -15z m121 -222 c53 -26
126 -28 208 -5 49 14 71 17 68 9 -2 -7 -12 -37 -21 -67 -39 -124 -59 -170 -74
-170 -32 0 -159 53 -234 98 -61 37 -80 54 -87 77 -4 17 -6 36 -3 43 4 13 42
16 79 6 33 -9 18 -24 -23 -24 -19 0 -34 -4 -34 -10 0 -5 9 -10 21 -10 16 0 19
-4 14 -20 -4 -12 -2 -20 5 -20 7 0 14 9 17 20 3 10 14 22 24 25 21 7 25 35 7
53 -16 16 -7 15 33 -5z m1579 -12 c0 -16 -92 -91 -111 -91 -24 0 -49 37 -49
72 l0 28 80 0 c44 0 80 -4 80 -9z m-1388 -247 c19 -18 -30 -64 -69 -64 -4 0 7
51 14 63 5 8 47 10 55 1z m1483 -114 c-40 -41 -62 -49 -83 -28 -13 13 -16 50
-5 61 3 4 33 7 67 7 l60 0 -39 -40z m215 -227 c-14 -48 -22 -59 -42 -61 -31
-4 -62 29 -54 56 5 16 83 60 107 62 4 0 -1 -26 -11 -57z m-1523 -141 c47 -29
111 -55 166 -67 25 -5 28 -10 25 -37 l-3 -31 -75 0 c-99 0 -184 11 -205 27
-18 13 -37 142 -27 191 l4 26 34 -39 c18 -22 55 -53 81 -70z m-127 -97 c0 -9
-9 -15 -21 -15 -18 0 -19 2 -9 15 7 8 16 15 21 15 5 0 9 -7 9 -15z m480 -51
c0 -9 -10 -14 -27 -14 -25 0 -26 1 -8 20 19 21 35 18 35 -6z"/>
<path d="M1430 2167 c0 -28 18 -38 50 -30 35 9 22 47 -17 51 -29 3 -33 0 -33
-21z"/>
<path d="M1550 2120 c0 -19 3 -21 12 -12 9 9 9 15 0 24 -9 9 -12 7 -12 -12z"/>
<path d="M1390 2094 c-18 -21 9 -49 39 -39 23 7 27 25 9 43 -16 16 -33 15 -48
-4z"/>
<path d="M1495 2099 c-10 -15 3 -25 16 -12 7 7 7 13 1 17 -6 3 -14 1 -17 -5z"/>
<path d="M1550 2064 c0 -9 7 -14 17 -12 25 5 28 28 4 28 -12 0 -21 -6 -21 -16z"/>
<path d="M1644 2065 c-9 -22 3 -44 28 -54 30 -11 38 -6 38 28 0 21 -6 30 -22
35 -33 9 -38 8 -44 -9z"/>
<path d="M930 1864 c-17 -43 -9 -84 16 -84 29 0 46 74 22 98 -18 18 -27 15
-38 -14z"/>
<path d="M1236 1873 c-10 -10 -7 -82 4 -104 7 -12 21 -19 40 -19 36 0 50 23
50 80 0 29 -4 40 -12 37 -7 -2 -12 -13 -11 -23 4 -33 -8 -74 -22 -74 -21 0
-38 38 -33 72 5 28 -3 44 -16 31z"/>
<path d="M1012 1718 c2 -7 19 -20 36 -29 18 -9 41 -28 53 -43 22 -28 66 -35
87 -14 16 16 15 60 -2 83 -12 17 -16 17 -30 5 -21 -16 -102 -18 -118 -2 -16
16 -31 15 -26 0z m161 -42 c3 -8 -1 -20 -9 -27 -11 -9 -19 -8 -35 7 l-21 19
24 6 c35 10 35 10 41 -5z"/>
<path d="M1843 1334 c7 -86 99 -236 171 -278 44 -25 19 -41 -60 -39 -48 1 -80
9 -128 31 -83 39 -137 89 -198 184 -27 43 -52 78 -54 78 -9 0 31 -88 58 -127
43 -63 135 -141 198 -165 66 -25 197 -31 223 -9 15 12 15 16 1 43 -8 16 -21
31 -29 34 -10 4 -8 17 11 60 l24 54 -70 0 c-64 0 -71 2 -87 27 -10 15 -28 56
-41 92 l-23 66 4 -51z m172 -176 c-4 -13 -13 -29 -20 -36 -10 -11 -16 -9 -34
14 -30 38 -27 44 20 44 37 0 40 -2 34 -22z"/>
</g>
</svg>
