<?xml version="1.0" standalone="no"?>
<!DOCTYPE svg PUBLIC "-//W3C//DTD SVG 20010904//EN"
 "http://www.w3.org/TR/2001/REC-SVG-20010904/DTD/svg10.dtd">
<svg version="1.0" xmlns="http://www.w3.org/2000/svg"
 width="225.000000pt" height="225.000000pt" viewBox="0 0 225.000000 225.000000"
 preserveAspectRatio="xMidYMid meet">

<g transform="translate(0.000000,225.000000) scale(0.100000,-0.100000)"
fill="#000000" stroke="none">
<path d="M1015 1999 c-22 -5 -86 -32 -142 -59 -393 -187 -671 -519 -785 -937
-29 -105 -31 -310 -5 -395 52 -165 195 -285 402 -338 177 -45 679 -72 930 -51
180 16 276 34 389 75 193 69 274 150 311 308 48 212 17 434 -96 668 -77 159
-150 261 -279 390 -256 256 -530 384 -725 339z m245 -86 c128 -47 257 -132
403 -265 191 -174 344 -439 393 -679 22 -110 15 -297 -15 -390 -40 -126 -142
-197 -377 -264 -21 -6 -21 -5 -26 275 -2 154 -8 283 -12 287 -4 5 -242 8 -529
8 l-522 0 -2 -45 c-1 -25 -5 -152 -9 -282 -5 -176 -9 -238 -18 -238 -27 0
-125 34 -187 65 -43 22 -85 54 -121 94 -124 133 -146 322 -66 570 78 244 199
433 392 610 115 106 378 261 477 280 62 12 143 2 219 -26z"/>
<path d="M660 1455 c-20 -24 -5 -41 69 -81 39 -21 70 -43 68 -49 -2 -5 -37
-23 -78 -39 -82 -33 -95 -44 -74 -66 13 -12 23 -11 83 8 84 27 162 75 162 100
0 12 -26 33 -77 64 -129 76 -139 80 -153 63z"/>
<path d="M1409 1407 c-133 -79 -134 -87 -19 -144 97 -49 148 -62 160 -43 15
24 0 36 -73 64 -40 16 -76 32 -80 36 -5 4 18 24 50 43 89 55 103 66 97 81 -11
29 -34 23 -135 -37z"/>
<path d="M1000 1231 c-41 -78 53 -156 139 -114 42 21 64 61 55 98 -9 35 -47
31 -52 -5 -5 -36 -20 -50 -53 -50 -29 0 -50 24 -42 48 5 14 -14 42 -28 42 -5
0 -13 -9 -19 -19z"/>
</g>
</svg>
